# xmcd
#
# Track frame offsets:
#  182
#  10842
#  25352
#  39642
#  53400
#  66107
#  77675
#  89202
#  103032
#  119270
#  133097
#  148075
#  166702
#  180017
#  190960
#  205305
#  218770
#  230227
#  244575
#  267502
#
# Disc length: 3756 seconds
#
# Revision: 4
# Processed by: cddbd v1.5.1PL0 Copyright (c) Steve Scherf et al.
# Submitted via: Collectorz.com Music Collector 6.9
#
DISCID=1b0eaa14
DTITLE=Various Artist - 30 Years Of Number 1's Volume 5 - 1965-1969
DYEAR=1989
DGENRE=Pop
TTITLE0=The Byrds - Mr. Tambourine Man
TTITLE1=The Walker Brothers - Make It Easy On Yourself
TTITLE2=The Seekers - The Carnival Is Over
TTITLE3=The Walker Brothers - The Sun Ain't Gonna Shine Anymore
TTITLE4=Dusty Springfield - You Don't Have To Say You Love Me
TTITLE5=Manfred Mann - Pretty Flamingo
TTITLE6=Georgie Fame and The Blue Flames - Get Away
TTITLE7=The Small Faces - All Or Nothing
TTITLE8=The Beach Boys - Good Vibrations
TTITLE9=Tom Jones - Green Green Grass Of Home
TTITLE10=Engelbert Humperdinck - Release Me
TTITLE11=Procol Harum - A Whiter Shade Of Pale
TTITLE12=Scott McKenzie - San Francisco (Be Sure To Wear Flowers In Your Hair)
TTITLE13=The Bee Gees - Massachusetts
TTITLE14=Georgie Fame - The Ballad Of Bonnie and Clyde
TTITLE15=Love Affair - Everlasting Love
TTITLE16=Cliff Richard - Congratulations
TTITLE17=Gary Puckett and The Union Gap - Young Girl
TTITLE18=Joe Cocker - With A Little Help From My Friends
TTITLE19=Fleetwood Mac - Albatross
EXTD=
EXTT0=
EXTT1=
EXTT2=
EXTT3=
EXTT4=
EXTT5=
EXTT6=
EXTT7=
EXTT8=
EXTT9=
EXTT10=
EXTT11=
EXTT12=
EXTT13=
EXTT14=
EXTT15=
EXTT16=
EXTT17=
EXTT18=
EXTT19=
PLAYORDER=
